<svg width="28" height="28" viewBox="0 0 28 28" fill="none" xmlns="http://www.w3.org/2000/svg">
<g id="Group 427320702">
<path id="Vector" d="M27.5016 14.3065C27.5016 13.1739 27.4097 12.3474 27.2108 11.4902H14.2773V16.6023H21.869C21.716 17.8728 20.8895 19.786 19.0527 21.0716L19.027 21.2428L23.1163 24.4107L23.3996 24.439C26.0016 22.036 27.5016 18.5003 27.5016 14.3065Z" fill="#4285F4"/>
<path id="Vector_2" d="M14.2747 27.7755C17.994 27.7755 21.1164 26.5509 23.397 24.4388L19.0501 21.0714C17.8869 21.8826 16.3257 22.4489 14.2747 22.4489C10.6319 22.4489 7.54018 20.046 6.43805 16.7246L6.2765 16.7383L2.02436 20.0291L1.96875 20.1837C4.234 24.6836 8.887 27.7755 14.2747 27.7755Z" fill="#34A853"/>
<path id="Vector_3" d="M6.43863 16.7251C6.14782 15.868 5.97952 14.9496 5.97952 14.0006C5.97952 13.0516 6.14782 12.1333 6.42333 11.2762L6.41563 11.0936L2.1102 7.75L1.96933 7.817C1.03571 9.68435 0.5 11.7813 0.5 14.0006C0.5 16.22 1.03571 18.3168 1.96933 20.1842L6.43863 16.7251Z" fill="#FBBC05"/>
<path id="Vector_4" d="M14.2747 5.55103C16.8614 5.55103 18.6062 6.66835 19.6011 7.60207L23.4888 3.80619C21.1012 1.58684 17.994 0.224609 14.2747 0.224609C8.887 0.224609 4.234 3.31638 1.96875 7.81627L6.42275 11.2755C7.54018 7.95408 10.6319 5.55103 14.2747 5.55103Z" fill="#EB4335"/>
</g>
</svg>
