<svg width="28" height="27" viewBox="0 0 28 27" fill="none" xmlns="http://www.w3.org/2000/svg">
<g id="Instagram">
<g clip-path="url(#clip0_184_970)">
<g id="Vector">
<path d="M13.7295 2.43223C17.335 2.43223 17.7583 2.44831 19.1833 2.51259C20.5012 2.57153 21.2138 2.79118 21.6906 2.97868C22.3227 3.22512 22.7727 3.51442 23.2442 3.98586C23.7156 4.45731 24.0103 4.90733 24.2514 5.53949C24.4335 6.0163 24.6585 6.72882 24.7175 8.04673C24.7817 9.47178 24.7978 9.89501 24.7978 13.5005C24.7978 17.106 24.7817 17.5292 24.7175 18.9543C24.6585 20.2722 24.4389 20.9847 24.2514 21.4615C24.0049 22.0937 23.7156 22.5437 23.2442 23.0152C22.7727 23.4866 22.3227 23.7813 21.6906 24.0223C21.2138 24.2045 20.5012 24.4295 19.1833 24.4884C17.7583 24.5527 17.335 24.5688 13.7295 24.5688C10.124 24.5688 9.70081 24.5527 8.27575 24.4884C6.95785 24.4295 6.24532 24.2098 5.76852 24.0223C5.13635 23.7759 4.68633 23.4866 4.21488 23.0152C3.74344 22.5437 3.44878 22.0937 3.2077 21.4615C3.02555 20.9847 2.80054 20.2722 2.74161 18.9543C2.67733 17.5292 2.66125 17.106 2.66125 13.5005C2.66125 9.89501 2.67733 9.47178 2.74161 8.04673C2.80054 6.72882 3.0202 6.0163 3.2077 5.53949C3.45414 4.90733 3.74344 4.45731 4.21488 3.98586C4.68633 3.51442 5.13635 3.21976 5.76852 2.97868C6.24532 2.79653 6.95785 2.57153 8.27575 2.51259C9.70081 2.44295 10.1294 2.43223 13.7295 2.43223ZM13.7295 0C10.0651 0 9.60438 0.016072 8.16325 0.0803602C6.72748 0.144648 5.74709 0.375014 4.88991 0.707169C4.00059 1.05004 3.25056 1.51613 2.50053 2.26616C1.7505 3.01618 1.28977 3.77157 0.941545 4.65553C0.609389 5.51271 0.379023 6.4931 0.314735 7.93423C0.250447 9.37 0.234375 9.83073 0.234375 13.4951C0.234375 17.1596 0.250447 17.6203 0.314735 19.0614C0.379023 20.4972 0.609389 21.4776 0.941545 22.3401C1.28442 23.2294 1.7505 23.9795 2.50053 24.7295C3.25056 25.4795 4.00595 25.9403 4.88991 26.2885C5.74709 26.6206 6.72748 26.851 8.16861 26.9153C9.60973 26.9796 10.0651 26.9957 13.7349 26.9957C17.4047 26.9957 17.8601 26.9796 19.3012 26.9153C20.7369 26.851 21.7173 26.6206 22.5799 26.2885C23.4692 25.9456 24.2192 25.4795 24.9693 24.7295C25.7193 23.9795 26.18 23.2241 26.5282 22.3401C26.8604 21.483 27.0908 20.5026 27.1551 19.0614C27.2193 17.6203 27.2354 17.1649 27.2354 13.4951C27.2354 9.82537 27.2193 9.37 27.1551 7.92887C27.0908 6.4931 26.8604 5.51271 26.5282 4.65018C26.1854 3.76086 25.7193 3.01083 24.9693 2.2608C24.2192 1.51077 23.4638 1.05004 22.5799 0.701812C21.7227 0.369657 20.7423 0.139291 19.3012 0.0750028C17.8547 0.016072 17.394 0 13.7295 0Z" fill="white"/>
<path d="M13.7295 2.43223C17.335 2.43223 17.7583 2.44831 19.1833 2.51259C20.5012 2.57153 21.2138 2.79118 21.6906 2.97868C22.3227 3.22512 22.7727 3.51442 23.2442 3.98586C23.7156 4.45731 24.0103 4.90733 24.2514 5.53949C24.4335 6.0163 24.6585 6.72882 24.7175 8.04673C24.7817 9.47178 24.7978 9.89501 24.7978 13.5005C24.7978 17.106 24.7817 17.5292 24.7175 18.9543C24.6585 20.2722 24.4389 20.9847 24.2514 21.4615C24.0049 22.0937 23.7156 22.5437 23.2442 23.0152C22.7727 23.4866 22.3227 23.7813 21.6906 24.0223C21.2138 24.2045 20.5012 24.4295 19.1833 24.4884C17.7583 24.5527 17.335 24.5688 13.7295 24.5688C10.124 24.5688 9.70081 24.5527 8.27575 24.4884C6.95785 24.4295 6.24532 24.2098 5.76852 24.0223C5.13635 23.7759 4.68633 23.4866 4.21488 23.0152C3.74344 22.5437 3.44878 22.0937 3.2077 21.4615C3.02555 20.9847 2.80054 20.2722 2.74161 18.9543C2.67733 17.5292 2.66125 17.106 2.66125 13.5005C2.66125 9.89501 2.67733 9.47178 2.74161 8.04673C2.80054 6.72882 3.0202 6.0163 3.2077 5.53949C3.45414 4.90733 3.74344 4.45731 4.21488 3.98586C4.68633 3.51442 5.13635 3.21976 5.76852 2.97868C6.24532 2.79653 6.95785 2.57153 8.27575 2.51259C9.70081 2.44295 10.1294 2.43223 13.7295 2.43223Z" fill="white"/>
</g>
<path id="Vector_2" d="M13.7293 6.56836C9.90413 6.56836 6.79688 9.67026 6.79688 13.5008C6.79688 17.3313 9.89878 20.4332 13.7293 20.4332C17.5598 20.4332 20.6617 17.3313 20.6617 13.5008C20.6617 9.67026 17.5598 6.56836 13.7293 6.56836ZM13.7293 17.9956C11.2435 17.9956 9.22911 15.9812 9.22911 13.4954C9.22911 11.0096 11.2435 8.99524 13.7293 8.99524C16.2151 8.99524 18.2294 11.0096 18.2294 13.4954C18.2294 15.9812 16.2151 17.9956 13.7293 17.9956Z" fill="#0C0B0B"/>
<path id="Vector_3" d="M20.9343 7.90771C21.8279 7.90771 22.5522 7.18334 22.5522 6.28979C22.5522 5.39624 21.8279 4.67188 20.9343 4.67188C20.0408 4.67188 19.3164 5.39624 19.3164 6.28979C19.3164 7.18334 20.0408 7.90771 20.9343 7.90771Z" fill="#0C0B0B"/>
</g>
</g>
<defs>
<clipPath id="clip0_184_970">
<rect x="0.234375" width="26.9903" height="26.9903" fill="white"/>
</clipPath>
</defs>
</svg>
