<svg width="28" height="27" viewBox="0 0 28 27" fill="none" xmlns="http://www.w3.org/2000/svg">
<g id="Twitter">
<g clip-path="url(#clip0_184_969)">
<path id="Vector" d="M23.7989 8.07563C23.8093 8.31315 23.8093 8.53987 23.8093 8.77738C23.8197 15.9784 18.5291 24.2915 8.85388 24.2915C6.00028 24.2915 3.19875 23.4386 0.792969 21.8407C1.20955 21.8947 1.62614 21.9163 2.04272 21.9163C4.40684 21.9163 6.70847 21.0958 8.57269 19.5735C6.32313 19.5304 4.34435 18.0081 3.65699 15.7841C4.4485 15.946 5.26084 15.9136 6.03152 15.6869C3.58409 15.1903 1.82402 12.9555 1.8136 10.3536C1.8136 10.332 1.8136 10.3104 1.8136 10.2888C2.54262 10.7099 3.36538 10.9474 4.19855 10.969C1.89692 9.37117 1.17831 6.18631 2.57387 3.6924C5.25043 7.10398 9.18715 9.16605 13.4155 9.39277C12.9885 7.50344 13.5717 5.51695 14.936 4.17822C17.0502 2.11616 20.3829 2.22412 22.3825 4.41574C23.5593 4.17822 24.6945 3.72478 25.7256 3.08781C25.3298 4.35096 24.5071 5.41978 23.4135 6.09994C24.455 5.97038 25.4756 5.67889 26.4338 5.24704C25.7256 6.34825 24.8299 7.29831 23.7989 8.07563Z" fill="white"/>
</g>
</g>
<defs>
<clipPath id="clip0_184_969">
<rect x="0.117188" width="26.9903" height="26.9903" fill="white"/>
</clipPath>
</defs>
</svg>
