<svg width="1440" height="626" viewBox="0 0 1440 626" fill="none" xmlns="http://www.w3.org/2000/svg">
<path d="M4.45598 39.3826C-1.91233 39.3826 -3.8361 38.0771 -4.00194 37.4243L-11.5 660L1454 645.247L1447.5 342.035L1466 44.8659L1435.83 38.9912C1433.68 39.7745 1428.47 40.8711 1424.89 38.9912C1420.41 36.6413 1407.97 31.9415 1405.98 31.9415C1403.99 31.9415 1398.99 22.9321 1393.02 25.6737C1387.05 28.4152 1379.57 20.194 1377.09 20.194C1377.09 20.194 1369.61 17.456 1365.14 14.7144C1361.55 12.5212 1342.68 6.48961 1347.21 12.7574C1335.71 12.7574 1339.81 18.6302 1329.79 15.8886C1319.77 13.1471 1317.34 22.1511 1317.34 22.1511C1312.79 25.6639 1313.85 28.0236 1311.37 25.6737C1308.88 23.3238 1313.36 28.4135 1311.37 28.4135C1309.38 28.4135 1300.41 29.1999 1293.94 31.9415C1287.47 34.683 1290.06 38.9912 1287.07 38.9912C1284.09 38.9912 1281.1 35.4663 1277.62 33.8997C1274.14 32.3331 1269.66 31.5498 1266.18 31.9415C1262.7 32.3331 1256.23 37.4246 1251.25 38.9912C1247.27 40.2444 1238.65 41.08 1234.83 41.3411L1121.9 44.8659L786.067 34.683L720.232 1.16466L639.125 41.6822L493.025 42.1244H189.038C181.906 39.2522 167.146 33.1162 165.156 31.5496C162.669 29.5915 158.689 33.5078 156.698 35.0744C154.708 36.641 148.343 35.0744 144.861 35.0744C141.378 35.0744 139.88 33.1162 137.393 31.5496C134.905 29.9831 134.403 26.0639 131.418 28.0221C128.433 29.9803 128.361 28.4147 123.452 26.4565C118.544 24.4982 112.441 22.7918 109.512 21.3682C100.082 16.7847 102.735 10.5186 103.064 8.08716C105.609 -10.7051 66.6944 17.4541 65.2018 17.4541C63.7092 17.4541 57.6911 23.3252 50.2282 23.3252C42.7654 23.3252 40.5263 28.8064 37.0436 26.4565C33.5609 24.1066 27.3421 32.7245 22.8644 33.5078C18.3867 34.2911 12.4164 39.3826 4.45598 39.3826Z" fill="#290054"/>
<path d="M342.5 64.4471C328.928 64.5692 331.308 64.9611 319.5 59.7882C314.099 57.2275 297.473 60.1071 292.5 57.0706C290.188 55.689 282.757 65.7708 280 64.4471C274.64 60.9868 263.485 64.4471 256.5 64.4471C249.51 64.4471 248.864 59.4338 243.5 62.8941C241.117 64.2179 246.932 105.234 226.388 61.3412C222.662 63.587 219.832 59.2688 215.731 61.3412C202.833 67.5582 180.116 40.5175 164.913 40.5175C149.71 40.5175 134.816 37.221 121.917 31.0044C117.892 28.932 114.466 26.744 110.515 24.4981C108.058 23.0009 105.521 21.5037 103.064 20.0643C97.8329 16.9221 91.4002 15.216 84.7716 15.216C78.1476 15.216 71.7104 16.9221 66.4795 20.0643C63.6477 21.5615 61.0406 23.1744 58.3586 24.7841C55.6766 26.397 50.9072 29.2179 46.9569 31.2903C26.5358 40.8808 1.72042 43.1106 -21 37.3949L-15.1121 23.2905C2.32739 27.6633 21.3595 25.9605 37.0436 18.6253C40.6197 16.8389 43.8256 14.8244 47.1022 12.8677C50.3788 10.9111 52.9901 9.29822 56.1171 7.62746C64.5955 2.76305 74.8829 0.134881 85.4447 0.134881C96.0023 0.134881 106.285 2.76305 114.764 7.62746C117.596 9.1825 120.352 10.8533 123.034 12.4629C125.716 14.0758 129.592 16.4341 133.168 18.2205C142.935 22.8439 154.167 25.289 165.618 25.289C177.074 25.289 188.304 22.8439 198.072 18.2205C201.723 16.3794 205.003 14.3618 208.28 12.4629C211.557 10.5641 213.199 9.46848 215.731 8.02909C224.389 2.82096 235.05 0 246.019 0C256.993 0 267.65 2.82417 276.311 8.0323C278.918 9.47169 281.38 10.9689 283.763 12.4083C288.137 15.1104 292.715 17.6068 297.472 19.8912C313.556 26.6866 332.792 27.3902 349.632 21.7901C357.088 18.8439 364.153 15.3321 370.719 11.313L376.382 8.08716C385.093 2.89827 395.784 0.0805116 406.786 0.0805116C417.784 0.0805116 428.475 2.89827 437.187 8.08716L444.638 12.2897C448.738 14.7668 452.684 17.0673 456.934 19.1975C465.832 23.4964 476.265 25.5141 486.739 24.9582L487.409 39.7535C473.043 40.3576 489.146 60.6981 477 54.7412C472.081 52.264 461.746 59.6024 457.5 57.0706L426.234 64.4471C420.77 61.1314 415.444 54.7412 408.5 54.7412C401.556 54.7412 412.246 59.5783 406.786 62.8941L391.5 54.7412C383.94 59.3486 371.095 49.0568 362.5 52.4118C352.579 56.0585 353.481 64.4181 342.5 64.4471Z" fill="#290054"/>
<path d="M800.599 40.5598C787.027 40.6819 773.658 38.0184 761.85 32.8455C756.448 30.2848 751.251 27.4768 746.277 24.4403C743.965 23.0587 741.583 21.6772 738.826 20.3534C733.466 16.8931 726.7 14.9943 719.715 14.9943C712.725 14.9943 705.964 16.8899 700.6 20.3502C698.218 21.674 695.981 23.0555 693.669 24.4371C689.943 26.683 686.217 28.9287 682.117 31.0011C669.218 37.2182 654.328 41.6822 639.125 41.6822C623.922 41.6822 652.025 55.9108 639.125 49.6941C635.1 47.6218 623.95 56.987 620 54.7412C617.543 53.244 604.457 51.1335 602 49.6941C596.769 46.5519 566.286 58.2353 559.657 58.2353C553.033 58.2353 561.731 61.3048 556.5 64.4471C553.668 65.9443 543.374 59.7314 540.692 61.3412C538.01 62.954 525.265 56.1629 521.315 58.2353C500.893 67.8258 476.158 44.3244 453.212 32.5046L457.037 20.0643C476.158 26.5947 495.572 25.9605 511.256 18.6253C514.832 16.8389 518.038 14.8244 521.315 12.8677C524.591 10.9111 527.203 9.29822 530.33 7.62746C538.808 2.76305 549.095 0.134881 559.657 0.134881C570.215 0.134881 580.498 2.76305 588.976 7.62746C591.808 9.1825 594.565 10.8533 597.247 12.4629C599.929 14.0758 603.804 16.4341 607.38 18.2205C617.148 22.8439 628.379 25.289 639.83 25.289C651.286 25.289 662.516 22.8439 672.284 18.2205C675.935 16.3794 679.216 14.3618 682.492 12.4629C685.769 10.5641 687.411 9.46848 689.944 8.02909C698.601 2.82096 709.262 1.16466 720.232 1.16466C731.206 1.16466 741.862 2.82417 750.524 8.0323C753.131 9.47169 755.593 10.9689 757.975 12.4083C762.35 15.1104 766.928 17.6068 771.685 19.8912C787.768 26.6866 807.004 27.3902 823.845 21.7901C831.3 18.8439 838.365 15.3321 844.931 11.313L850.594 8.08716C859.306 2.89827 869.997 0.0805116 880.998 0.0805116C891.997 0.0805116 902.687 2.89827 911.399 8.08716L918.851 12.2897C922.951 14.7668 926.897 17.0673 931.146 19.1975C940.045 23.4964 950.477 25.5141 960.952 24.9582L961.621 39.7535C947.255 40.3576 939.571 47.8864 927.425 41.9294C922.506 39.4523 923.096 49.12 918.851 46.5882L906 41.9294C900.536 38.6137 901.444 50.0824 894.5 50.0824C887.556 50.0824 880.46 36.4378 875 39.7535L867 43.7012C859.44 48.3086 850.595 38.5744 842 41.9294C832.079 45.5761 811.581 40.5308 800.599 40.5598Z" fill="#290054"/>
<path d="M1274.81 40.5598C1261.24 40.6819 1263.06 51.7611 1251.25 46.5882C1245.85 44.0275 1237.16 46.7377 1232.19 43.7012C1229.88 42.3197 1204 87.9642 1204 46.5882C1198.64 43.1279 1201.43 61.7294 1194.44 61.7294C1187.45 61.7294 1180.18 16.8899 1174.81 20.3502C1189 19.8911 1191.31 48.7008 1189 50.0824C1185.27 52.3282 1171.98 48.01 1167.88 50.0824C1154.98 56.2994 1133.2 46.5882 1118 46.5882C1102.8 46.5882 1062.4 60.5696 1049.5 54.3529C1045.47 52.2806 1069.45 48.0675 1065.5 45.8217C1063.04 44.3244 1076.46 48.0276 1074 46.5882C1068.77 43.446 1036.13 50.0824 1029.5 50.0824C1022.88 50.0824 1022.23 40.559 1017 43.7012C1014.17 45.1985 1011.22 82.5877 1009 43.7012C1006.32 45.3141 1010.73 41.6288 1006.78 43.7012C986.362 53.2917 950.371 44.3244 927.425 32.5046L931.249 20.0643C950.371 26.5947 969.785 25.9605 985.469 18.6253C989.045 16.8389 992.251 14.8244 995.527 12.8677C998.804 10.9111 1001.41 9.29822 1004.54 7.62746C1013.02 2.76305 1023.31 0.134881 1033.87 0.134881C1044.43 0.134881 1054.71 2.76305 1063.19 7.62746C1066.02 9.1825 1068.78 10.8533 1071.46 12.4629C1074.14 14.0758 1078.02 16.4341 1081.59 18.2205C1091.36 22.8439 1102.59 25.289 1114.04 25.289C1125.5 25.289 1136.73 22.8439 1146.5 18.2205C1150.15 16.3794 1153.43 14.3618 1156.7 12.4629C1159.98 10.5641 1161.62 9.46848 1164.16 8.02909C1172.81 2.82096 1183.47 0 1194.44 0C1205.42 0 1216.07 2.82417 1224.74 8.0323C1227.34 9.47169 1229.81 10.9689 1232.19 12.4083C1236.56 15.1104 1241.14 17.6068 1245.9 19.8912C1261.98 26.6866 1281.22 27.3902 1298.06 21.7901C1305.51 18.8439 1312.58 15.3321 1319.14 11.313L1324.81 8.08716C1333.52 2.89827 1344.21 0.0805116 1355.21 0.0805116C1366.21 0.0805116 1376.9 2.89827 1385.61 8.08716L1393.06 12.2897C1397.16 14.7668 1401.11 17.0673 1405.36 19.1975C1414.26 23.4964 1424.69 25.5141 1435.16 24.9582C1445.64 24.4024 1435.83 39.7535 1435.83 39.7535C1421.47 40.3576 1407.22 37.4788 1395.08 31.5219C1390.16 29.0447 1385.69 26.3972 1381.44 23.8655L1374.66 19.8943C1369.2 16.5786 1362.45 14.7729 1355.51 14.7729C1348.56 14.7729 1341.82 16.5753 1336.36 19.8911L1330.84 23.0012C1323.29 27.6085 1315.15 31.6211 1306.55 34.9761C1296.63 38.6228 1285.79 40.5308 1274.81 40.5598Z" fill="#290054"/>
</svg>
